# xmcd
#
# Track frame offsets:
# 150
# 13117
# 30627
# 45724
# 64232
# 78857
# 94819
# 108451
# 128500
# 146368
# 162422
# 178635
# 192770
# 208787
# 223403
# 237563
# 251391
# 266618
#
# Disc length: 3762 seconds
#
#
# Revision: 0
# Processed by: cddbd v1.5.1PL0 Copyright (c) Steve Scherf et al.
# Submitted via: FreeRIP 2.942 
#
DISCID=020eb012
DTITLE=Guilherme e Santiago - Bailão do Guilherme e Santiago
DYEAR=2005
DGENRE=country
TTITLE0=Não Adiantou ir Pescar
TTITLE1=A Outra
TTITLE2=Ai é que o Trem é Bom
TTITLE3=Acorda pra Vida
TTITLE4=Vem Sambar com a Gente
TTITLE5=Ai que Eu tô Aqui
TTITLE6=Vai Sobrar Mulher
TTITLE7=Azul
TTITLE8=Chovendo Estrelas
TTITLE9=Onde tem Sanfona, tem...
TTITLE10=Namoro no Escuro
TTITLE11=Encontrei uma Paixão
TTITLE12=O Casado e o Solteiro
TTITLE13=O Som do Povo
TTITLE14=Peão não Chora
TTITLE15=Gosto de Mulher, meu...
TTITLE16=Pop Star
TTITLE17=Se essa Moda Pega
EXTD=
EXTT0=
EXTT1=
EXTT2=
EXTT3=
EXTT4=
EXTT5=
EXTT6=
EXTT7=
EXTT8=
EXTT9=
EXTT10=
EXTT11=
EXTT12=
EXTT13=
EXTT14=
EXTT15=
EXTT16=
EXTT17=
PLAYORDER=
